# xmcd CD database file
#
# Track frame offsets:
#	150
#	16499
#	28750
#	44510
#	60366
#	72736
#	86627
#	105452
#	119688
#	136685
#	154172
#	173586
#
# Disc length: 2590 seconds
#
# Revision: 1
# Processed by: cddbd v1.5.2PL0 Copyright (c) Steve Scherf et al.
# Submitted via: CDex 1.50Beta7
#
DISCID=9f0a1c0c
DTITLE=Roberta Miranda - Sucessos de ouro Vol II
DYEAR=1998
DGENRE=Country
TTITLE0=Va com Deus
TTITLE1=Doi
TTITLE2=Meu grande bem
TTITLE3=Sol da minha vida
TTITLE4=Marcas
TTITLE5=Vem pra mim
TTITLE6=Cabecinha no ombro
TTITLE7=Tudo acabado
TTITLE8=Champagne
TTITLE9=Um minutos a mais
TTITLE10=Eu te amo, te amo, te amo
TTITLE11=Luar do sertão
EXTD=YEAR: 1998
EXTT0=
EXTT1=
EXTT2=
EXTT3=
EXTT4=
EXTT5=
EXTT6=
EXTT7=
EXTT8=
EXTT9=
EXTT10=
EXTT11=
PLAYORDER=
